<svg width="23" height="22" fill="none" xmlns="http://www.w3.org/2000/svg"><g clip-path="url(#clip0)"><path fill-rule="evenodd" clip-rule="evenodd" d="M20.647 4H1.36a.831.831 0 00-.604.269.951.951 0 00-.252.646v12.17a.95.95 0 00.252.646c.16.172.377.268.604.269h19.287a.832.832 0 00.606-.268.951.951 0 00.251-.647V4.915a.951.951 0 00-.252-.647.831.831 0 00-.605-.268zm-1.846 12.692l-3.81-4.806-3.973 3.595-4.04-3.698-3.78 4.91H1.554l4.212-6.147L1.71 6.874l-.038-1.81 9.346 7.812 9.31-7.937v1.935l-3.985 3.672 4.126 6.127-1.668.02z" fill="#00AD59"/></g><defs><clipPath id="clip0"><path fill="#fff" transform="translate(.004)" d="M0 0h22v22H0z"/></clipPath></defs></svg>