<svg width="40" height="40" fill="none" xmlns="http://www.w3.org/2000/svg"><path d="M20 14.793A5.218 5.218 0 0014.793 20 5.218 5.218 0 0020 25.207 5.218 5.218 0 0025.207 20 5.218 5.218 0 0020 14.793zM35.617 20c0-2.156.02-4.293-.102-6.445-.12-2.5-.691-4.719-2.52-6.547-1.831-1.832-4.046-2.398-6.546-2.52-2.156-.12-4.293-.101-6.445-.101-2.157 0-4.293-.02-6.446.101-2.5.122-4.719.692-6.547 2.52-1.832 1.832-2.398 4.047-2.52 6.547-.12 2.156-.1 4.293-.1 6.445s-.02 4.293.1 6.445c.122 2.5.692 4.72 2.52 6.547 1.832 1.832 4.047 2.399 6.547 2.52 2.156.121 4.293.102 6.446.102 2.156 0 4.293.019 6.445-.102 2.5-.121 4.719-.691 6.547-2.52 1.832-1.832 2.398-4.046 2.52-6.546.124-2.153.1-4.29.1-6.446zM20 28.012A8 8 0 0111.988 20 8 8 0 0120 11.99 8 8 0 0128.01 20 8 8 0 0120 28.012zm8.34-14.48a1.869 1.869 0 01-1.872-1.872c0-1.035.836-1.87 1.872-1.87a1.869 1.869 0 011.729 2.587 1.867 1.867 0 01-1.73 1.154z" fill="url(#paint0_linear)"/><defs><linearGradient id="paint0_linear" x1="20.004" y1="4.386" x2="20.004" y2="35.615" gradientUnits="userSpaceOnUse"><stop stop-color="#515BD4"/><stop offset=".229" stop-color="#8134AF"/><stop offset=".479" stop-color="#DD2A7B"/><stop offset=".771" stop-color="#FEDA77"/><stop offset="1" stop-color="#F58529"/></linearGradient></defs></svg>