<svg width="90" height="90" fill="none" xmlns="http://www.w3.org/2000/svg"><g filter="url(#filter0_i)"><circle cx="45" cy="45" r="45" fill="#fff" fill-opacity=".5"/></g><circle cx="45" cy="45" r="36" fill="#fff"/><path d="M38.7 56.7a.882.882 0 01-.636-.274.958.958 0 01-.264-.663V35.138c0-.163.04-.323.118-.465a.921.921 0 01.324-.342.873.873 0 01.892-.015l18 10.313c.141.08.259.2.34.344a.967.967 0 010 .954.92.92 0 01-.34.344l-18 10.313a.872.872 0 01-.434.116z" fill="#00AD59"/><defs><filter id="filter0_i" x="0" y="0" width="90" height="94" filterUnits="userSpaceOnUse" color-interpolation-filters="sRGB"><feFlood flood-opacity="0" result="BackgroundImageFix"/><feBlend in="SourceGraphic" in2="BackgroundImageFix" result="shape"/><feColorMatrix in="SourceAlpha" values="0 0 0 0 0 0 0 0 0 0 0 0 0 0 0 0 0 0 127 0" result="hardAlpha"/><feOffset dy="4"/><feGaussianBlur stdDeviation="2"/><feComposite in2="hardAlpha" operator="arithmetic" k2="-1" k3="1"/><feColorMatrix values="0 0 0 0 0 0 0 0 0 0 0 0 0 0 0 0 0 0 0.1 0"/><feBlend in2="shape" result="effect1_innerShadow"/></filter></defs></svg>