<svg width="20" height="20" fill="none" xmlns="http://www.w3.org/2000/svg"><path d="M10 .375C4.685.375.375 4.685.375 10s4.31 9.625 9.625 9.625 9.625-4.31 9.625-9.625S15.315.375 10 .375zm0 15.21a.86.86 0 110-1.717.86.86 0 010 1.718zm1.351-4.715a1.038 1.038 0 00-.664.963v.487a.172.172 0 01-.171.172H9.484a.172.172 0 01-.171-.172v-.462a2.402 2.402 0 011.547-2.273c.73-.281 1.203-.893 1.203-1.562 0-.947-.927-1.718-2.063-1.718-1.137 0-2.063.771-2.063 1.718v.164a.172.172 0 01-.171.172H6.734a.172.172 0 01-.171-.172v-.164c0-.844.369-1.632 1.04-2.219C8.246 5.24 9.097 4.93 10 4.93c.902 0 1.753.311 2.398.874.67.587 1.04 1.375 1.04 2.22 0 1.241-.82 2.358-2.087 2.846z" fill="#D9D9D9"/></svg>