<svg width="42" height="42" fill="none" xmlns="http://www.w3.org/2000/svg"><path d="M21.233 20c2.2.12 3.87.72 5.01 1.8 1.16 1.06 1.74 2.45 1.74 4.17 0 1.2-.29 2.27-.87 3.21-.58.92-1.44 1.65-2.58 2.19-1.14.54-2.53.81-4.17.81-1.52 0-2.96-.24-4.32-.72-1.34-.5-2.42-1.16-3.24-1.98l1.05-1.71c.7.72 1.63 1.31 2.79 1.77 1.16.44 2.4.66 3.72.66 1.72 0 3.05-.37 3.99-1.11.94-.76 1.41-1.8 1.41-3.12 0-1.3-.47-2.32-1.41-3.06-.94-.74-2.36-1.11-4.26-1.11h-1.5v-1.59l5.82-7.29h-10.74V11h13.5v1.53L21.233 20z" fill="#00AD59"/><path d="M21 .5A20.5 20.5 0 11.5 21" stroke="#00AD59"/></svg>