<svg width="42" height="42" fill="none" xmlns="http://www.w3.org/2000/svg"><path d="M28.375 30.08V32h-14.73v-1.53l8.73-8.55c1.1-1.08 1.84-2.01 2.22-2.79.4-.8.6-1.6.6-2.4 0-1.24-.43-2.2-1.29-2.88-.84-.7-2.05-1.05-3.63-1.05-2.46 0-4.37.78-5.73 2.34l-1.53-1.32c.82-.96 1.86-1.7 3.12-2.22 1.28-.52 2.72-.78 4.32-.78 2.14 0 3.83.51 5.07 1.53 1.26 1 1.89 2.38 1.89 4.14 0 1.08-.24 2.12-.72 3.12s-1.39 2.15-2.73 3.45l-7.14 7.02h11.55z" fill="#00AD59"/><path d="M21 .5a20.5 20.5 0 010 41" stroke="#00AD59"/></svg>