<svg width="40" height="40" fill="none" xmlns="http://www.w3.org/2000/svg"><path d="M31.794 17.345c.04-4.82-4.065-9.239-9.15-9.85-.11-.014-.22-.03-.328-.05a4.759 4.759 0 00-.775-.084c-1.044 0-1.322.734-1.395 1.169-.072.425-.004.783.201 1.061.345.469.954.552 1.442.619.142.02.277.038.39.063 4.57 1.022 6.108 2.627 6.86 7.158.018.11.027.247.037.392.033.542.1 1.668 1.311 1.668.1 0 .21-.008.324-.025 1.126-.171 1.091-1.201 1.075-1.696-.005-.14-.01-.272.003-.36a.465.465 0 00.003-.067l.002.002z" fill="#7D5AEE"/><path d="M21.244 5.727c.137.01.263.02.37.035 7.505 1.155 10.957 4.71 11.912 12.273.016.128.02.285.021.45.01.592.03 1.822 1.35 1.847h.04c.415 0 .744-.125.98-.372.41-.428.384-1.067.359-1.58-.005-.127-.01-.245-.01-.35.096-7.733-6.6-14.748-14.327-15.008-.033 0-.063 0-.093.005a.65.65 0 01-.092.005c-.078 0-.172-.007-.273-.014-.12-.008-.259-.018-.4-.018-1.23 0-1.464.875-1.494 1.397-.068 1.205 1.097 1.29 1.657 1.33zm11.92 22.083c-.161-.122-.32-.247-.478-.373-.82-.66-1.692-1.267-2.534-1.855l-.525-.367c-1.08-.758-2.05-1.127-2.966-1.127-1.237 0-2.314.684-3.204 2.029-.393.596-.871.886-1.46.886a2.898 2.898 0 01-1.176-.295c-3.484-1.58-5.974-4.003-7.397-7.201-.688-1.547-.465-2.557.745-3.38.688-.467 1.967-1.335 1.878-3-.103-1.889-4.271-7.574-6.028-8.219a3.422 3.422 0 00-2.327-.006c-2.018.678-3.465 1.871-4.19 3.446-.7 1.524-.666 3.312.09 5.172 2.192 5.378 5.272 10.068 9.157 13.938 3.802 3.789 8.475 6.89 13.888 9.222.489.21 1 .325 1.375.408.127.029.237.054.317.075a.53.53 0 00.135.019h.043c2.547 0 5.605-2.327 6.544-4.979.823-2.323-.68-3.471-1.887-4.393zM22.37 11.872c-.435.01-1.344.033-1.662.956-.15.434-.132.807.053 1.115.27.45.789.59 1.259.667 1.708.273 2.586 1.217 2.761 2.972.082.816.634 1.388 1.339 1.388.053 0 .107-.003.16-.01.85-.1 1.261-.725 1.225-1.857.013-1.18-.604-2.52-1.655-3.586-1.054-1.07-2.324-1.674-3.48-1.645z" fill="#7D5AEE"/></svg>