<svg width="40" height="41" fill="none" xmlns="http://www.w3.org/2000/svg"><path d="M37.008 9.275C31.025 0 18.808-2.758 9.335 3.008.11 8.774-2.882 21.308 3.102 30.584l.499.752-1.995 7.521 7.48-2.005.747.5c3.242 1.756 6.732 2.759 10.222 2.759 3.74 0 7.48-1.003 10.72-3.009 9.225-6.016 11.968-18.3 6.233-27.827zM31.773 28.58c-.997 1.504-2.244 2.507-3.989 2.757-.997 0-2.244.502-7.23-1.504-4.238-2.005-7.729-5.264-10.222-9.025-1.496-1.755-2.244-4.01-2.493-6.267 0-2.006.748-3.76 1.994-5.014.5-.501.998-.752 1.496-.752h1.247c.498 0 .997 0 1.246 1.003.5 1.253 1.746 4.262 1.746 4.512.249.25.249.752 0 1.003.249.501 0 1.003-.25 1.253-.249.251-.498.752-.748 1.003-.498.25-.748.752-.498 1.254a28.82 28.82 0 003.49 4.261c1.496 1.254 2.992 2.257 4.737 3.009.499.25.997.25 1.247-.251.249-.501 1.495-1.755 1.994-2.256.499-.502.748-.502 1.247-.25l3.989 2.005c.498.25.997.501 1.246.752.25.752.25 1.755-.249 2.507z" fill="#42E55F"/></svg>