<svg width="40" height="40" fill="none" xmlns="http://www.w3.org/2000/svg"><g clip-path="url(#clip0)"><path d="M39.166 10.845a4.644 4.644 0 00-1.276-2.117 5.083 5.083 0 00-2.23-1.237c-3.13-.825-15.67-.825-15.67-.825a127.835 127.835 0 00-15.65.784 5.267 5.267 0 00-2.23 1.266 4.828 4.828 0 00-1.297 2.127A48.484 48.484 0 000 20c-.02 3.068.251 6.133.813 9.157a4.712 4.712 0 001.292 2.114A5.16 5.16 0 004.34 32.51c3.171.823 15.65.823 15.65.823a127.99 127.99 0 0015.67-.783 5.083 5.083 0 002.23-1.237 4.634 4.634 0 001.275-2.116c.575-3.019.854-6.086.835-9.159a44.295 44.295 0 00-.834-9.195v.002zM16.003 25.706V14.295l10.433 5.707-10.433 5.704z" fill="#EA0001"/></g><defs><clipPath id="clip0"><path fill="#fff" d="M0 0h40v40H0z"/></clipPath></defs></svg>